<?xml version="1.0" encoding="UTF-8" standalone="no"?>
<!DOCTYPE svg PUBLIC "-//W3C//DTD SVG 1.1//EN" "http://www.w3.org/Graphics/SVG/1.1/DTD/svg11.dtd">
<svg width="100%" height="100%" viewBox="0 0 1200 1200" version="1.1" xmlns="http://www.w3.org/2000/svg" xmlns:xlink="http://www.w3.org/1999/xlink" xml:space="preserve" xmlns:serif="http://www.serif.com/" style="fill-rule:evenodd;clip-rule:evenodd;stroke-linecap:round;stroke-linejoin:round;stroke-miterlimit:1.5;">
    <g id="RA" transform="matrix(1.9106,0,0,1.9106,-1299.64,-857.916)">
        <g transform="matrix(0.578156,0,0,0.580376,683.716,352.62)">
            <circle cx="537.142" cy="707.212" r="489.977" style="fill:none;stroke:white;stroke-width:7.83px;"/>
        </g>
        <g transform="matrix(0.933685,0,0,0.889678,699.116,484.033)">
            <path d="M385.981,259.691C385.412,260.793 384.3,261.541 383.023,261.541L379.909,259.346L379.696,258.533L379.806,256.979L380.061,256.338C380.079,256.304 380.176,256.119 380.341,255.811C381.803,253.068 389.16,239.328 389.438,238.751C391.411,234.654 393.498,230.601 395.61,226.573C401.888,214.606 407.44,202.266 414.649,190.798C438.196,153.341 472.618,117.063 520.632,117.063C522.488,117.063 523.995,118.644 523.995,120.592C523.995,122.541 522.488,124.122 520.632,124.122C475.015,124.122 442.635,159.099 420.264,194.686C413.154,205.995 407.694,218.175 401.503,229.978C399.429,233.933 397.379,237.913 395.441,241.936C395.159,242.522 387.695,256.474 386.211,259.258C386.087,259.49 385.981,259.691 385.981,259.691Z" style="fill:white;"/>
            <path d="M516.809,123.422C516.723,123.11 516.677,122.781 516.677,122.44L516.721,121.684L516.962,120.789L517.617,119.746L518.415,119.096L519.357,118.724L520.455,118.672L521.558,119.019L522.476,119.724L523.047,120.557L523.415,121.801C523.535,122.648 523.847,126.958 523.928,127.689C524.457,132.45 524.139,137.895 522.339,142.392C521.491,144.51 519.73,146.879 517.521,149.325C514.744,152.398 511.227,155.697 508.625,159.002C507.432,160.518 506.432,162.008 505.935,163.492C505.64,164.372 505.538,165.235 505.933,166.057C508.112,170.596 511.38,176.059 512.656,181.529C513.676,185.901 513.515,190.28 511.222,194.38C509.763,196.988 505.422,200.604 502.033,204.02C501.136,204.925 500.321,205.812 499.724,206.666C499.59,206.858 499.453,207.031 499.344,207.197C500.242,208.144 503.037,211.114 503.701,212.065C508.184,218.491 509.674,226.58 506.147,233.834C503.944,238.364 499.725,241.226 495.537,243.966C492.535,245.93 489.47,247.721 488.33,251.033C487.298,254.031 487.603,257.182 487.904,260.362C488.29,264.444 488.726,268.572 487.872,272.601C485.378,284.37 479.023,292.247 470.838,295.644C462.737,299.008 452.669,298.019 442.438,291.517C440.85,290.508 440.341,288.336 441.303,286.67C442.264,285.003 444.334,284.469 445.922,285.478C454.024,290.627 461.949,291.743 468.364,289.08C474.695,286.452 479.377,280.172 481.306,271.069C482.004,267.773 481.525,264.398 481.21,261.059C480.809,256.819 480.627,252.632 482.003,248.635C483.649,243.854 487.646,240.81 491.978,237.976C495.122,235.919 498.502,234.025 500.155,230.625C502.492,225.819 501.244,220.494 498.274,216.236C497.555,215.207 495.247,213.292 493.985,211.583C493.427,210.827 493.013,210.079 492.768,209.404L492.459,208.14L492.436,207.095C492.629,204.763 494.557,201.767 497.374,198.928C500.285,195.993 504.167,193.048 505.421,190.807C507.168,187.682 506.608,184.278 505.469,180.966C504.03,176.784 501.602,172.726 499.925,169.233C497.736,164.672 499.509,159.498 503.439,154.506C506.133,151.082 509.763,147.652 512.639,144.468C514.197,142.743 515.539,141.151 516.137,139.657C517.501,136.25 517.648,132.114 517.247,128.506C517.185,127.952 516.919,124.755 516.809,123.422Z" style="fill:white;"/>
            <path d="M442.362,291.127C441.904,290.523 441.631,289.76 441.631,288.929L441.707,288.176L442.006,287.299L442.494,286.556L443.019,286.059L444.365,285.445L445.577,285.433L446.663,285.84L447.672,286.749C448.004,287.186 449.734,290.701 450.076,291.497C451.546,294.925 451.946,298.401 452.406,302.06C453.778,312.946 452.595,326.872 443.575,334.465C435.175,341.536 425.197,342.895 415.294,338.224C413.523,337.388 409.51,334.989 406.705,333.28C406.703,333.427 406.7,333.547 406.694,333.63C406.384,338.361 405.268,344.141 403.222,348.448C401.446,352.185 398.536,355.166 395.705,358.121C389.417,364.682 383.806,367.734 378.46,368.252C370.578,369.017 362.884,364.188 353.775,355.086C352.431,353.742 352.379,351.506 353.659,350.095C354.939,348.685 357.069,348.63 358.414,349.973C365.713,357.267 371.525,361.835 377.841,361.223C381.96,360.824 386.117,358.17 390.962,353.114C393.276,350.701 395.751,348.351 397.202,345.297C398.878,341.77 399.729,337.02 399.983,333.146C400.038,332.314 399.777,330.031 400.073,328.511L400.45,327.236L400.977,326.261L401.71,325.433L402.746,324.759L403.76,324.47L404.77,324.475C405.256,324.539 405.993,324.753 406.884,325.18C409.634,326.499 415.414,330.541 418.052,331.785C425.515,335.305 433.035,334.287 439.366,328.958C446.544,322.916 446.829,311.648 445.738,302.985C445.364,300.017 445.134,297.175 443.942,294.394C443.744,293.935 442.667,291.745 442.362,291.127ZM447.574,291.192C447.955,290.741 448.357,290.041 448.357,288.929C448.357,289.79 448.063,290.58 447.574,291.192Z" style="fill:white;"/>
            <path d="M297.651,329.166C297.081,329.632 296.364,329.91 295.586,329.91L294.374,329.696L293.656,329.325L293.038,328.785L292.422,327.829L292.122,326.6L292.171,325.693L292.485,324.728L293.112,323.823L293.848,323.226C295.049,322.474 306.696,318.618 308.015,318.2C310.802,317.317 313.537,316.379 316.213,315.183C324.243,311.597 330.892,306.141 338.199,301.366C351.001,293.001 368.145,272.664 377.616,260.447C381.788,255.067 389.663,237.357 392.945,232.283C393.987,230.671 396.081,230.25 397.616,231.344C399.152,232.438 399.553,234.635 398.51,236.247C395.167,241.417 387.084,259.422 382.834,264.903C372.985,277.607 355.067,298.66 341.755,307.359C334.152,312.327 327.202,317.947 318.848,321.679C315.945,322.975 312.981,324.001 309.959,324.958C308.908,325.291 299.599,328.495 297.651,329.166ZM297.077,323.215C296.713,323.011 296.228,322.85 295.586,322.85C296.121,322.85 296.627,322.982 297.077,323.215Z" style="fill:white;"/>
            <path d="M287.265,277.02L290.606,277.904C292.506,277.774 294.392,277.85 296.297,277.88C301.993,277.972 307.487,277.515 313.109,276.651C325.445,274.754 338.266,270.105 349.039,263.5C339.841,263.636 330.297,259.152 324.926,251.527L324.774,251.467L323.787,250.699L323.187,249.838L322.892,249.067L322.764,248.155L322.871,247.171L323.238,246.227L323.868,245.394L324.638,244.817L325.826,244.418L326.88,244.429L327.747,244.682L328.184,244.925C331.225,244.859 336.388,244.542 338.423,243.576C344.501,240.693 351.759,236.719 356.768,231.361C355.341,231.002 353.973,230.385 352.731,229.584C346.941,225.851 344.085,219.638 342.115,213.323C341.895,212.618 340.82,209.398 340.775,207.74L340.844,206.655L341.123,205.661L341.998,204.34C343.347,203.002 345.477,203.064 346.753,204.48C347.575,205.393 347.843,206.648 347.567,207.782C347.772,208.525 348.389,210.746 348.508,211.126C349.993,215.888 351.887,220.754 356.253,223.57C357.379,224.296 358.707,224.796 360.046,224.622C360.267,224.52 361.755,223.829 362.308,223.626L363.331,223.363L364.248,223.36L365.149,223.603L365.895,224.04L366.502,224.638L366.966,225.395L367.206,226.1L367.305,227.015L367.172,227.984L366.863,228.798C362.042,238.515 350.549,245.571 341.194,250.009C339.752,250.693 337.056,251.188 334.304,251.513C338.877,255.132 344.978,256.914 350.681,256.342C353.662,256.043 356.69,255.142 359.521,254.199C360.835,253.761 362.204,253.311 363.447,252.689L364.291,252.361L365.689,252.318L366.425,252.553L367.097,252.962L367.861,253.797L368.358,254.974L368.417,256.282L368.064,257.432C367.153,259.254 365.338,261.098 363.139,262.73C360.528,264.668 357.375,266.377 355.48,267.644C343.394,275.725 328.434,281.43 314.084,283.636C308.101,284.556 302.255,285.037 296.194,284.939C294.353,284.91 292.533,284.816 290.694,284.976L289.341,284.851C288.39,284.65 286.207,284.086 285.126,283.74L284.075,283.324L283.289,282.764L282.691,282.024L282.252,280.929L282.164,280.057L282.308,279.095L282.79,278.067L283.65,277.186L284.462,276.764L285.622,276.57C286.218,276.57 286.779,276.733 287.265,277.02ZM287.614,282.943C287.056,283.374 286.367,283.629 285.622,283.629C286.581,283.629 287.207,283.295 287.614,282.943Z" style="fill:white;"/>
            <path d="M367.383,189.841C366.139,189.826 364.915,189.654 363.766,189.166C361.102,188.035 358.864,185.58 357.452,182.636C356.103,179.822 355.527,176.605 355.85,173.962C356.19,171.177 357.604,168.86 359.632,166.948C361.927,164.785 365.081,163.17 367.501,161.736C372.929,158.522 379.251,153.318 382.25,147.724C384.424,143.668 384.265,138.544 382.724,134.279C381.898,131.993 380.461,129.26 379.862,126.579C379.294,124.033 379.389,121.522 380.564,119.224C381.988,116.44 384.829,114.386 388.305,112.942C392.264,111.298 397.095,110.404 400.15,109.034C411.657,103.878 419.69,92 418.425,79.251C418.233,77.313 419.575,75.576 421.422,75.374C423.268,75.173 424.923,76.582 425.115,78.52C426.679,94.283 417.02,109.151 402.792,115.527C400.155,116.709 396.246,117.574 392.641,118.809C390.041,119.699 387.501,120.589 386.491,122.563C385.957,123.607 386.308,124.772 386.674,125.929C387.325,127.989 388.379,130.02 389.014,131.776C391.24,137.936 391.252,145.327 388.113,151.185C384.569,157.796 377.221,164.086 370.807,167.884C369.057,168.921 366.84,170.025 365.001,171.456C363.812,172.381 362.702,173.386 362.522,174.859C362.35,176.268 362.743,177.964 363.462,179.463C364.119,180.835 365.048,182.095 366.288,182.622C366.965,182.909 367.703,182.877 368.44,182.82C369.68,182.724 370.931,182.478 372.111,182.366C372.668,182.314 373.786,182.293 373.786,182.293L371.473,183.656L374.093,185.396L376.942,187.272L376.683,187.704C375.453,189.752 372.404,194.762 371.064,196.742C368.321,200.794 362.56,206.906 356.41,209.834C351.598,212.125 346.575,212.503 342.24,209.605C340.674,208.558 340.213,206.375 341.21,204.731C342.207,203.088 344.288,202.604 345.854,203.65C348.234,205.241 350.989,204.663 353.631,203.405C358.66,201.011 363.337,195.968 365.579,192.654C366.029,191.99 366.678,190.971 367.383,189.841Z" style="fill:white;"/>
            <path d="M311.888,91.421C311.332,91.848 310.646,92.101 309.904,92.101C308.048,92.101 306.541,90.519 306.541,88.571L306.821,87.141L307.587,85.963L308.635,85.183C308.973,85.004 309.508,84.785 310.232,84.575C317.456,82.473 353.615,78.049 354.419,78.022C361.509,77.779 368.811,78.222 375.833,79.247C394.166,81.921 403.96,79.163 420.94,74.918C422.746,74.466 424.561,75.638 424.991,77.533C425.421,79.429 424.305,81.334 422.499,81.785C404.587,86.263 394.246,89.06 374.907,86.239C368.26,85.27 361.349,84.848 354.638,85.077C353.863,85.104 318.994,89.351 312.029,91.378C311.985,91.39 311.936,91.406 311.888,91.421ZM313.181,89.372C313.242,89.1 313.268,88.832 313.268,88.571C313.268,88.846 313.238,89.114 313.181,89.372Z" style="fill:white;"/>
            <path d="M365.798,85.272C364.665,85.228 355.477,84.886 350.128,85.352C346.875,85.636 337.937,86.713 334.698,87.063C325.66,88.04 316.079,89.607 307.511,92.702C279.332,102.881 256.74,115.286 240.193,141.364C233.269,152.277 226.916,163.384 223.108,175.828C219.527,187.534 218.11,199.231 217.679,211.402C217.004,230.45 217.727,254.682 224.026,276.028C230.117,296.674 241.447,314.646 262.24,321.921C268.65,324.164 279.132,325.937 287.758,324.048C289.575,323.651 291.358,324.876 291.737,326.783C292.116,328.69 290.949,330.561 289.131,330.959C279.324,333.106 267.401,331.168 260.112,328.618C237.122,320.575 224.335,300.944 217.6,278.117C211.071,255.991 210.257,230.882 210.957,211.14C211.411,198.318 212.93,186.001 216.704,173.669C220.702,160.602 227.323,148.91 234.594,137.451C252.012,110.001 275.66,96.742 305.322,86.027C314.364,82.761 324.469,81.071 334.009,80.04C337.275,79.687 346.29,78.603 349.571,78.317C355.756,77.778 365.025,78.065 366.678,78.263L367.627,78.476L368.739,79.149L369.485,80.114L369.873,81.332L369.892,82.148L369.739,82.924L369.409,83.673L368.86,84.385C368.015,85.231 366.858,85.523 365.798,85.272ZM363.846,83.943C363.603,83.603 363.427,83.228 363.317,82.838C363.416,83.2 363.579,83.577 363.846,83.943ZM363.183,82.038C363.128,81.038 363.475,80.019 364.22,79.274C363.341,80.154 363.118,81.126 363.183,82.038Z" style="fill:white;"/>
            <path d="M281.013,332.13C280.105,332.547 279.031,332.543 278.087,332.019C276.446,331.108 275.818,328.971 276.686,327.249L277.665,326.047L279.173,325.32C281.13,324.778 290.148,323.867 293.366,323.062C305.222,320.099 315.442,316.484 325.81,309.922C327.4,308.916 329.469,309.454 330.428,311.122C331.386,312.79 330.874,314.961 329.284,315.968C318.299,322.92 307.486,326.79 294.925,329.93C291.943,330.676 282.222,331.97 281.013,332.13Z" style="fill:white;"/>
            <path d="M353.938,353.539C353.043,354.179 349.255,356.884 348.09,357.624C343.025,360.841 337.679,363.633 332.18,366.03C316.818,372.724 298.251,372.166 281.915,369.837C258.167,366.451 233.268,359.046 216.198,340.909C206.981,331.116 202.428,320.096 197.146,308.045C193.671,300.113 183.915,277.633 182.473,269.046C182.151,267.128 183.373,265.295 185.201,264.957C187.029,264.619 188.775,265.902 189.098,267.821C190.478,276.039 199.931,297.504 203.258,305.095C208.204,316.382 212.352,326.777 220.984,335.948C237.017,352.983 260.515,359.662 282.821,362.842C298.019,365.009 315.308,365.738 329.601,359.51C334.787,357.25 339.83,354.618 344.607,351.584C346.262,350.533 350.908,347.094 351.809,346.777L353.314,346.59L354.222,346.819L354.974,347.249L355.618,347.885L356.086,348.682L356.383,350.143C356.383,351.757 355.349,353.119 353.938,353.539ZM351.282,353.164C350.308,352.546 349.656,351.423 349.656,350.143C349.656,351.617 350.245,352.589 351.282,353.164Z" style="fill:white;"/>
            <path d="M196.142,287.635C196.999,289.363 196.358,291.496 194.712,292.396C193.065,293.295 191.033,292.623 190.175,290.895C181.067,272.535 177.32,244.43 171.23,225.028C168.463,216.211 165.302,206.015 158.494,199.414C153.06,194.146 145.855,191.72 138.834,189.378C133.562,187.619 128.155,186.336 122.583,186.336C120.727,186.336 119.22,184.755 119.22,182.807C119.22,180.859 120.727,179.277 122.583,179.277C128.85,179.277 134.942,180.672 140.872,182.65C148.83,185.304 156.899,188.257 163.059,194.229C170.698,201.635 174.514,212.926 177.619,222.819C183.609,241.901 187.184,269.578 196.142,287.635Z" style="fill:white;"/>
            <path d="M123.357,188.494C121.501,188.494 119.994,186.912 119.994,184.964C119.994,183.016 121.501,181.435 123.357,181.435C127.158,181.435 130.576,184.489 132.901,189.703C137.014,198.923 138.308,215.007 137.854,219.788C134.228,257.963 117.077,292.248 115.044,330.793C114.054,349.553 115.605,363.933 120.288,376.286C127.345,394.9 141.467,408.838 164.049,426.339C173.481,433.65 215.248,450.769 222.541,452.442C224.354,452.858 225.505,454.741 225.108,456.644C224.711,458.548 222.917,459.755 221.104,459.339C213.488,457.591 169.902,439.652 160.053,432.018C136.187,413.522 121.496,398.568 114.037,378.896C109.044,365.724 107.272,350.406 108.327,330.403C110.366,291.753 127.524,257.367 131.16,219.087C131.504,215.469 130.671,204.522 128.15,196.339C127.386,193.857 126.482,191.638 125.348,190.056C124.746,189.217 124.177,188.494 123.357,188.494Z" style="fill:white;"/>
            <path d="M211.716,397.542C211.458,397.043 211.312,396.471 211.312,395.864L211.431,394.921L211.833,393.963L212.361,393.286L212.923,392.833L214.088,392.368L215.238,392.361L216.192,392.688L216.92,393.206L217.738,394.346C218.02,394.951 219.447,399.664 219.592,400.522C220.3,404.704 220.849,408.943 221.251,413.165C222.387,425.087 222.688,436.952 222.688,448.922C222.688,485.612 221.952,521.705 214.44,557.703C214.043,559.606 212.249,560.813 210.435,560.396C208.622,559.98 207.472,558.096 207.869,556.193C215.276,520.696 215.961,485.101 215.961,448.922C215.961,437.187 215.671,425.555 214.558,413.867C214.173,409.823 213.647,405.763 212.969,401.757C212.883,401.25 211.921,398.192 211.716,397.542ZM215.083,399.368C215.682,399.311 216.233,399.081 216.73,398.658C216.263,399.037 215.699,399.29 215.083,399.368ZM217.465,397.836C217.73,397.45 218.039,396.829 218.039,395.864C218.039,396.594 217.827,397.273 217.465,397.836Z" style="fill:white;"/>
            <path d="M332.286,455.58C332.309,459.19 332.023,462.837 331.44,466.336C329.746,476.499 325.452,483.719 319.566,488.385C310.902,495.252 298.568,496.601 285.303,492.931C271.121,489.008 260.579,478.873 251.992,466.7C243.795,455.082 237.386,441.617 231.049,430.455C226.919,423.182 223.525,415.506 219.643,408.099C218.382,405.693 217.037,403.337 215.752,400.945C215.674,400.798 214.828,399.419 214.406,398.732C213.556,398.091 213.002,397.045 213.002,395.864L213.328,394.302L214.076,393.212L215.272,392.442L216.049,392.255L217.005,392.288L218.042,392.663L218.914,393.338C219.588,394.026 221.436,397.149 221.613,397.479C222.908,399.892 224.265,402.27 225.537,404.697C229.382,412.033 232.738,419.638 236.827,426.841C243.06,437.818 249.338,451.075 257.398,462.5C265.067,473.371 274.352,482.601 287.018,486.105C298.031,489.151 308.319,488.452 315.512,482.751C320.196,479.039 323.466,473.207 324.814,465.12C325.578,460.535 325.763,455.664 325.337,451.037C325.293,450.551 324.178,445.296 324.058,444.182L324.06,443.117L324.423,441.934L324.942,441.17L325.6,440.598L326.752,440.116L327.997,440.106L328.805,440.372L329.614,440.922L330.204,441.593C331.28,442.981 336.551,450.037 337.004,450.541C339.744,453.591 343.883,457.912 348.443,460.197C350.89,461.423 353.46,462.083 355.935,461.117C357.914,460.345 359.469,458.637 360.729,456.465C363.009,452.533 364.265,447.129 364.619,441.616C364.978,436.016 364.396,430.285 362.83,425.783C361.937,423.218 360.759,421.064 359.144,419.772C357.668,418.591 357.383,416.374 358.508,414.825C359.634,413.276 361.746,412.977 363.222,414.158C365.732,416.165 367.761,419.375 369.148,423.362C371.002,428.689 371.755,435.463 371.33,442.09C370.9,448.803 369.252,455.348 366.476,460.135C364.365,463.774 361.593,466.442 358.278,467.735C354.084,469.371 349.69,468.645 345.545,466.568C340.315,463.947 335.489,459.126 332.286,455.58ZM219.565,396.956C219.664,396.652 219.729,396.292 219.729,395.864C219.729,396.245 219.672,396.612 219.565,396.956Z" style="fill:white;"/>
            <path d="M406.99,406.165C406.924,405.996 406.28,404.325 406.046,403.549L405.738,401.667L405.949,400.294L406.539,399.13L407.569,398.161L408.492,397.734L409.681,397.559L411.335,397.917C411.909,398.167 412.628,398.643 413.39,399.362C415.773,401.614 419.501,407.341 420.571,408.434C424.373,412.319 428.287,415.751 432.197,417.848C435.486,419.612 438.735,420.432 441.851,419.299C444.656,418.278 447.244,415.758 449.727,411.503C451.583,408.324 452.618,404.625 453.595,401.1C455.069,395.781 455.762,390.389 455.968,384.887C456.041,382.94 457.605,381.422 459.46,381.498C461.315,381.574 462.762,383.217 462.69,385.163C462.463,391.241 461.683,397.196 460.054,403.072C458.913,407.188 457.631,411.478 455.464,415.19C451.943,421.223 448.032,424.522 444.054,425.969C440.149,427.389 436.087,427.087 431.982,425.463C426.617,423.341 421.117,418.845 415.878,413.492C415.512,413.118 414.844,412.226 414.025,411.113C414.058,412.58 414.051,414.048 414.009,415.516C413.846,421.182 413.633,431.059 410.916,438.7C408.777,444.717 405.114,449.372 399.378,450.77C391.815,452.613 385.356,449.683 379.997,444.816C375.209,440.468 371.337,434.549 368.356,429.818C366.486,426.851 364.523,423.994 362.307,421.269C361.894,420.761 360.996,419.535 360.381,418.688C358.998,418.251 357.989,416.902 357.989,415.308L358.085,414.341L358.406,413.392L359.377,412.153L360.067,411.71L360.821,411.449L361.656,411.373L362.598,411.538L363.512,411.975L364.516,412.835C365.37,413.741 366.701,415.798 367.423,416.685C369.819,419.631 371.945,422.716 373.966,425.923C376.652,430.185 380.086,435.561 384.399,439.478C388.141,442.876 392.576,445.18 397.857,443.893C401.359,443.04 403.308,439.906 404.614,436.232C407.064,429.34 407.138,420.414 407.285,415.303C407.373,412.254 407.295,409.201 406.99,406.165Z" style="fill:white;"/>
            <path d="M458.541,383.266C457.547,382.653 456.879,381.518 456.879,380.221L457.147,378.82L458.021,377.539L458.961,376.917L460.285,376.639L461.224,376.779L462.165,377.225C462.62,377.528 463.906,378.979 464.142,379.234C465.206,380.382 466.327,381.485 467.46,382.564C470.572,385.53 474.337,387.903 478.105,389.935C482.318,392.207 489.719,394.713 496.072,394.686C499.186,394.673 502.061,394.147 503.807,392.173C504.857,390.984 505.376,389.268 505.376,386.97C505.376,379.418 501.467,373.494 495.976,368.787C486.926,361.028 473.643,356.512 463.93,354.085C429.655,345.521 393.57,365.496 365.029,384.166C354.412,391.111 339.076,407.524 328.622,414.628C327.064,415.687 324.98,415.219 323.971,413.583C322.962,411.948 323.408,409.761 324.966,408.702C335.446,401.58 350.827,385.137 361.47,378.175C391.438,358.571 429.499,338.226 465.488,347.217C476.036,349.853 490.403,354.894 500.231,363.32C507.326,369.402 512.103,377.211 512.103,386.97C512.103,391.438 510.781,394.663 508.738,396.974C506.724,399.252 503.934,400.669 500.675,401.315C492.481,402.939 481.021,399.446 475.03,396.214C470.742,393.901 466.479,391.165 462.938,387.791C461.702,386.613 460.48,385.408 459.319,384.155C459.237,384.066 458.819,383.586 458.541,383.266ZM463.238,381.827C463.45,381.412 463.606,380.89 463.606,380.221C463.606,380.799 463.473,381.345 463.238,381.827Z" style="fill:white;"/>
            <path d="M345.724,390.452C345.964,390.22 346.242,390.022 346.552,389.867L347.769,389.532L348.73,389.608L349.809,390.078L350.542,390.744L351.111,391.715L351.338,392.631L351.243,393.985L350.822,394.971L350.251,395.675C350.21,395.714 349.962,395.939 349.542,396.318C345.739,399.739 326.408,417.042 324.333,418.82C316.147,425.834 309.094,433.688 299.641,439.116C272.074,454.947 248.051,464.87 216.945,457.335C215.136,456.897 214.007,455 214.424,453.102C214.842,451.203 216.649,450.018 218.458,450.456C247.807,457.566 270.402,447.859 296.412,432.923C305.493,427.708 312.215,420.09 320.079,413.351C322.144,411.582 341.379,394.363 345.163,390.958C345.419,390.728 345.643,390.525 345.724,390.452Z" style="fill:white;"/>
            <path d="M146.383,232.557C146.275,232.212 146.217,231.843 146.217,231.46L146.293,230.451L146.545,229.52L146.975,228.712L147.497,228.107L148.357,227.518L149.39,227.207L150.513,227.248L151.617,227.678C152.171,228.005 153.196,229.066 154.048,230.709C155.345,233.21 156.632,237.205 156.632,238.291C156.632,238.904 156.581,239.384 156.514,239.747L156.1,241.014L155.32,242.09L154.38,242.749L153.415,243.05L152.489,243.069L151.238,242.681L150.252,241.962C149.656,241.387 148.815,240.097 148.109,238.597C147.18,236.624 146.442,234.313 146.358,233.56C146.32,233.217 146.33,232.881 146.383,232.557Z" style="fill:white;"/>
        </g>
    </g>
</svg>
